:SAMPLES-PER-SECOND 30
:FULLY-SPECIFIED
:DEGREES
441
root  3.35208 39.2509 -0.871111 9.04193 -69.7794 -16.7975
RightUpLeg  -3.19576 4.91215 9.88936
RightLeg  18.5828 -7.93523 -3.30218
RightFoot  -6.37052 -0.250599 4.77385
RightToes  -5.28226e-011 1.30204e-014 -6.03759e-014
Spine  6.60355 -3.85894 -8.47562
Spine1  7.44227 -5.78554 6.41346
HEad  -18.5702 -1.20307 9.87183
LeftShoulder1  1.9986 -9.17607 -8.2723
LeftArm  30.1457 -20.3053 -91.4451
LeftForeArm  -42.5702 -59.7833 -22.6788
LeftHand  1.76567 9.97486 42.0405
RightShoulder  1.22672 2.98677 11.827
RightArm  10.2325 17.4597 71.8353
RightForeArm  73.4504 78.938 58.206
RightHand  -2.21581 -23.5614 12.6054
LeftUpLeg  -11.6171 -5.0942 8.53065
LeftLeg  48.0327 4.22371 5.46528
LeftFoot  -15.9548 -0.464145 -13.9357
LeftToes  -2.42178e-010 -1.66495e-011 -2.88221e-011
442
root  3.08028 39.2745 -0.731323 9.01678 -68.8791 -16.5397
RightUpLeg  -2.65857 3.97279 9.88784
RightLeg  17.9989 -7.57198 -3.29997
RightFoot  -7.06751 -0.240111 5.14815
RightToes  -5.28226e-011 1.30204e-014 -6.03759e-014
Spine  6.30238 -1.55216 -3.13003
Spine1  5.94328 -1.82554 1.71926
HEad  -17.3451 -8.83197 10.5762
LeftShoulder1  1.94612 -8.82976 -8.2939
LeftArm  28.2854 -18.6153 -89.7028
LeftForeArm  -46.3063 -59.4888 -22.5118
LeftHand  1.4496 9.26605 40.9026
RightShoulder  1.23156 3.19822 11.2397
RightArm  11.4629 17.0469 72.7377
RightForeArm  40.8546 74.3792 39.47
RightHand  -1.35669 -19.6586 9.73398
LeftUpLeg  -11.6089 -6.23587 8.79188
LeftLeg  44.7208 1.92366 2.4533
LeftFoot  -13.4717 -0.224593 -16.3099
LeftToes  -2.42178e-010 -1.66495e-011 -2.88221e-011
443
root  2.81746 39.1548 -0.49752 10.3874 -69.5577 -17.6736
RightUpLeg  -3.13771 4.72079 9.91909
RightLeg  19.5234 -7.14254 -3.22483
RightFoot  -8.28324 -0.207261 5.64802
RightToes  -5.28226e-011 1.30204e-014 -6.03759e-014
Spine  5.83412 1.53386 2.45486
Spine1  5.26745 2.7049 -3.05163
HEad  -16.6034 -16.2244 10.1383
LeftShoulder1  1.97713 -8.36467 -9.27972
LeftArm  24.6114 -17.224 -87.3559
LeftForeArm  -47.4966 -59.9101 -22.9324
LeftHand  1.16787 8.64799 39.3645
RightShoulder  1.28501 3.41637 11.4535
RightArm  13.1863 18.0505 72.2159
RightForeArm  12.8322 69.0597 30.3019
RightHand  -0.673915 -14.3255 7.4924
LeftUpLeg  -10.4196 -5.96014 8.91087
LeftLeg  41.9111 -0.0965982 0.291631
LeftFoot  -11.3952 0.0543839 -16.9141
LeftToes  -2.42178e-010 -1.66495e-011 -2.88221e-011
444
root  2.5469 38.9506 -0.196146 11.643 -71.2237 -18.3219
RightUpLeg  -4.60989 5.99856 9.3802
RightLeg  22.5564 -6.34245 -3.08234
RightFoot  -10.0502 -0.137327 6.10506
RightToes  -5.28226e-011 1.30204e-014 -6.03759e-014
Spine  5.16615 4.7835 6.55837
Spine1  5.47213 6.88478 -6.64453
HEad  -16.5062 -22.416 8.6739
LeftShoulder1  2.04506 -7.83891 -10.8046
LeftArm  18.9011 -15.8329 -84.4293
LeftForeArm  -43.8384 -61.8793 -24.8617
LeftHand  1.01228 8.20444 39.4384
RightShoulder  1.42497 3.83885 12.3775
RightArm  15.2818 20.1914 70.9693
RightForeArm  -6.67501 66.2553 27.9948
RightHand  -0.200479 -10.0938 3.08183
LeftUpLeg  -8.74 -4.6767 8.18296
LeftLeg  39.8142 -0.488003 -0.0633215
LeftFoot  -12.1593 -0.0223444 -14.5547
LeftToes  -2.42178e-010 -1.66495e-011 -2.88221e-011
445
root  2.30412 38.6526 0.0997912 10.5109 -72.1776 -16.5233
RightUpLeg  -6.59668 6.30533 8.11754
RightLeg  26.5731 -5.2174 -3.05784
RightFoot  -12.5262 -0.0139118 6.72766
RightToes  -5.28226e-011 1.30204e-014 -6.03759e-014
Spine  4.89443 7.08907 7.88183
Spine1  5.94277 9.33972 -7.67503
HEad  -17.5267 -26.6759 6.62607
LeftShoulder1  2.03929 -7.30543 -11.7275
LeftArm  12.0833 -15.2463 -82.1243
LeftForeArm  -36.1458 -65.2034 -28.7508
LeftHand  1.10988 8.4264 40.0671
RightShoulder  1.6342 4.42801 13.7056
RightArm  15.7405 22.5249 70.3662
RightForeArm  -14.0937 67.9705 31.9348
RightHand  0.106256 -7.80213 -7.31837
LeftUpLeg  -7.14202 -3.74288 6.43452
LeftLeg  38.2365 1.13106 1.33748
LeftFoot  -16.1824 -0.357163 -10.8449
LeftToes  -2.42178e-010 -1.66495e-011 -2.88221e-011
446
root  2.16501 38.2343 0.334767 6.1897 -70.8316 -12.0113
RightUpLeg  -8.88021 5.04724 6.29347
RightLeg  31.9338 -4.39207 -3.18695
RightFoot  -15.0397 0.151793 7.84531
RightToes  -5.28226e-011 1.30204e-014 -6.03759e-014
Spine  5.67372 7.58494 6.65912
Spine1  5.96062 9.31677 -6.09721
HEad  -20.0073 -28.8357 4.72665
LeftShoulder1  1.92773 -6.8403 -11.4738
LeftArm  5.82935 -17.0141 -81.4583
LeftForeArm  -25.8882 -68.5135 -33.8393
LeftHand  1.87529 10.1682 42.5844
RightShoulder  1.80182 4.78732 14.9549
RightArm  13.0531 24.6033 71.8054
RightForeArm  -6.89778 72.8061 44.2486
RightHand  0.162103 -6.37489 -19.8279
LeftUpLeg  -6.14283 -4.19299 4.22537
LeftLeg  37.4853 3.02034 2.87507
LeftFoot  -21.0127 -0.563683 -8.07834
LeftToes  -2.42178e-010 -1.66495e-011 -2.88221e-011
447
root  2.12806 37.8589 0.512334 0.688293 -67.5728 -6.69501
RightUpLeg  -11.2283 2.23531 3.9504
RightLeg  38.0253 -3.60052 -3.27757
RightFoot  -15.6587 0.243108 9.30663
RightToes  -5.28226e-011 1.30204e-014 -6.03759e-014
Spine  7.18675 6.67022 4.04525
Spine1  5.72243 7.56563 -3.31573
HEad  -23.5389 -29.249 3.49385
LeftShoulder1  1.84044 -6.68928 -10.8353
LeftArm  1.36835 -21.8414 -81.8273
LeftForeArm  -11.2087 -71.8091 -41.0173
LeftHand  3.60602 13.0633 49.9415
RightShoulder  1.85134 4.7699 15.6588
RightArm  8.65732 26.9282 75.0881
RightForeArm  19.7036 77.1602 69.9563
RightHand  -0.0806879 -5.01836 -28.2234
LeftUpLeg  -5.6707 -5.16222 2.10619
LeftLeg  37.2587 2.92033 2.77293
LeftFoot  -23.7454 -0.563161 -6.46141
LeftToes  -2.42178e-010 -1.66495e-011 -2.88221e-011
448
root  2.10868 37.598 0.689417 -3.85107 -64.4805 -2.3031
RightUpLeg  -13.9168 -0.310176 1.35613
RightLeg  44.5317 -2.84051 -3.2926
RightFoot  -13.978 0.154873 10.9508
RightToes  -5.28226e-011 1.30204e-014 -6.03759e-014
Spine  8.43772 5.49421 1.28299
Spine1  6.03007 5.52798 -0.644512
HEad  -27.1075 -28.4167 2.798
LeftShoulder1  1.91016 -7.02297 -10.9276
LeftArm  -0.1632 -28.7672 -82.4581
LeftForeArm  14.214 -75.6838 -55.0065
LeftHand  5.28599 14.7427 58.6941
RightShoulder  1.8146 4.59752 15.6825
RightArm  4.6511 30.2116 78.0987
RightForeArm  59.8637 77.798 103.748
RightHand  -0.461075 -3.70134 -31.4535
LeftUpLeg  -5.61165 -4.96809 0.393301
LeftLeg  37.7273 0.870168 1.11617
LeftFoot  -24.5035 -0.46501 -5.29555
LeftToes  -2.42178e-010 -1.66495e-011 -2.88221e-011
449
root  2.01558 37.4945 0.919247 -6.88245 -63.0002 0.704224
RightUpLeg  -16.5911 -1.10289 -0.795185
RightLeg  49.9183 -2.48219 -3.51757
RightFoot  -11.3323 -0.0778836 12.5673
RightToes  -5.28226e-011 1.30204e-014 -6.03759e-014
Spine  9.13844 4.64156 -0.886536
Spine1  6.58557 3.90048 1.48169
HEad  -29.498 -26.6907 1.90905
LeftShoulder1  2.10129 -7.6063 -11.7826
LeftArm  2.22264 -35.9651 -84.0878
LeftForeArm  54.9064 -78.6286 -79.4203
LeftHand  4.17585 13.0368 56.7318
RightShoulder  1.73226 4.3933 15.174
RightArm  1.5484 33.8451 78.9605
RightForeArm  93.3017 75.9724 125.694
RightHand  -1.03753 -1.7198 -32.2434
LeftUpLeg  -5.31916 -3.55686 -0.791536
LeftLeg  38.1076 -1.14024 -0.551075
LeftFoot  -24.5717 -0.381633 -4.55945
LeftToes  -2.42178e-010 -1.66495e-011 -2.88221e-011
450
root  1.81252 37.5893 1.22543 -8.06885 -62.8056 2.03619
RightUpLeg  -18.8233 -0.825516 -1.91754
RightLeg  52.5285 -3.0089 -4.58516
RightFoot  -9.44681 -0.285949 13.4416
RightToes  -5.28226e-011 1.30204e-014 -6.03759e-014
Spine  9.62186 3.74325 -2.13743
Spine1  6.06776 2.39361 3.18859
HEad  -29.6789 -24.16 0.0255268
LeftShoulder1  2.22279 -7.94626 -12.3402
LeftArm  8.74948 -41.5904 -88.0127
LeftForeArm  99.5638 -78.9665 -108.324
LeftHand  2.42551 10.72 48.8753
RightShoulder  1.63763 4.12373 14.6661
RightArm  -0.689897 35.9418 77.5641
RightForeArm  117.164 74.9857 134.39
RightHand  -1.78589 0.71032 -33.2466
LeftUpLeg  -4.33645 -2.49537 -1.50059
LeftLeg  37.057 -1.78692 -1.04928
LeftFoot  -24.293 -0.360584 -4.46114
LeftToes  -2.42178e-010 -1.66495e-011 -2.88221e-011
451
root  1.49518 37.8758 1.60377 -7.36249 -63.1269 1.90076
RightUpLeg  -20.6304 -0.992069 -1.99318
RightLeg  51.9446 -4.81796 -6.91231
RightFoot  -8.85233 -0.347557 13.1524
RightToes  -5.28226e-011 1.30204e-014 -6.03759e-014
Spine  9.82949 2.31304 -2.7456
Spine1  3.95676 0.530213 5.02339
HEad  -27.5267 -20.6141 -3.14988
LeftShoulder1  2.12325 -7.80149 -11.6318
LeftArm  18.3454 -44.2596 -93.8577
LeftForeArm  132.568 -77.5669 -128.021
LeftHand  1.30401 8.85757 40.8997
RightShoulder  1.59809 3.91316 14.7505
RightArm  -1.00761 35.5828 75.122
RightForeArm  128.141 76.6214 130.737
RightHand  -2.23694 1.84002 -35.1505
LeftUpLeg  -2.89016 -2.79337 -1.95546
LeftLeg  34.2543 -1.05775 -0.3941
LeftFoot  -23.2936 -0.357791 -4.75255
LeftToes  -2.42178e-010 -1.66495e-011 -2.88221e-011
452
root  1.06005 38.2536 2.0203 -5.95508 -64.1544 1.50525
RightUpLeg  -22.0548 -1.90773 -1.48282
RightLeg  49.0324 -7.744 -9.75721
RightFoot  -9.0931 -0.305633 12.3502
RightToes  -5.28226e-011 1.30204e-014 -6.03759e-014
Spine  9.51796 0.543448 -3.60885
Spine1  1.1801 -1.65044 7.72127
HEad  -24.2039 -15.736 -7.25046
LeftShoulder1  1.87067 -7.41237 -9.80695
LeftArm  28.9704 -43.774 -99.4773
LeftForeArm  151.212 -76.8183 -135.565
LeftHand  0.0870268 5.65067 31.3211
RightShoulder  1.63034 3.9281 15.1801
RightArm  2.03902 33.7351 73.023
RightForeArm  109.413 79.8335 103.455
RightHand  -1.99597 0.987151 -35.3605
LeftUpLeg  -1.2839 -3.4414 -2.41861
LeftLeg  30.6507 0.50091 0.694571
LeftFoot  -21.7936 -0.325798 -4.98501
LeftToes  -2.42178e-010 -1.66495e-011 -2.88221e-011
453
root  0.514164 38.5899 2.43459 -5.4903 -66.5747 2.11224
RightUpLeg  -22.9581 -3.0783 -0.78106
RightLeg  45.1307 -10.8069 -11.7009
RightFoot  -8.88342 -0.315906 11.8015
RightToes  -5.28226e-011 1.30204e-014 -6.03759e-014
Spine  8.82436 -1.06858 -5.24625
Spine1  -1.13058 -3.7187 11.2434
HEad  -21.1665 -9.52091 -11.4911
LeftShoulder1  1.64193 -7.1572 -7.87423
LeftArm  38.8855 -41.2017 -102.875
LeftForeArm  150.095 -78.6014 -127.753
LeftHand  -0.58498 2.29016 21.2887
RightShoulder  1.62558 3.97527 14.9558
RightArm  8.7422 31.4061 72.5186
RightForeArm  56.7222 77.2511 50.8699
RightHand  -1.52037 0.178377 -31.2198
LeftUpLeg  0.485862 -2.73662 -3.07267
LeftLeg  27.2499 2.2347 1.61289
LeftFoot  -20.3529 -0.289962 -5.22659
LeftToes  -2.42178e-010 -1.66495e-011 -2.88221e-011
454
root  -0.12793 38.8089 2.83426 -6.89038 -70.3823 4.36847
RightUpLeg  -23.3228 -4.67512 0.203207
RightLeg  41.3961 -13.3889 -12.5943
RightFoot  -6.72525 -0.475357 10.7714
RightToes  -5.28226e-011 1.30204e-014 -6.03759e-014
Spine  7.90995 -2.49897 -6.91603
Spine1  -2.7364 -5.43304 14.2443
HEad  -18.6619 -2.3293 -14.9444
LeftShoulder1  1.54204 -7.22224 -6.72377
LeftArm  47.1975 -37.514 -103.497
LeftForeArm  109.18 -80.8484 -84.4546
LeftHand  -0.665427 0.185857 14.9204
RightShoulder  1.52186 3.84087 13.8383
RightArm  18.074 28.4445 74.3128
RightForeArm  23.9808 65.4591 23.2443
RightHand  -1.47786 1.70226 -24.258
LeftUpLeg  2.45691 -0.414921 -4.00069
LeftLeg  24.2975 3.72475 2.2426
LeftFoot  -18.9997 -0.288025 -6.01688
LeftToes  -2.42178e-010 -1.66495e-011 -2.88221e-011
